<svg xmlns="http://www.w3.org/2000/svg" viewBox="0 0 64 64" fill="none">
  <rect width="64" height="64" rx="14" fill="#2f7d63"/>
  <path d="M18 46V22a4 4 0 0 1 4-4h14l10 10v18a4 4 0 0 1-4 4H22a4 4 0 0 1-4-4Z" fill="white" fill-opacity="0.16"/>
  <path d="M20 44V20a3 3 0 0 1 3-3h12.5L46 27.5V44a3 3 0 0 1-3 3H23a3 3 0 0 1-3-3Z" fill="white"/>
  <path d="M35.5 17v8.5a2 2 0 0 0 2 2H46" stroke="#2f7d63" stroke-width="2"/>
  <path d="M25 30h13M25 35h13M25 40h8" stroke="#2f7d63" stroke-width="2" stroke-linecap="round"/>
</svg>
